<svg xmlns="http://www.w3.org/2000/svg" width="65" height="20" viewBox="0 0 65 20" fill="none"><path d="M23.1069 15.0002V6.85474H28.5956V8.27462H24.8291V10.2155H28.3132V11.6354H24.8291V13.5803H28.6115V15.0002H23.1069Z" fill="white"></path><path d="M32.8522 15.0002H29.9647V6.85474H32.8761C33.6954 6.85474 34.4007 7.0178 34.992 7.34394C35.5833 7.66743 36.038 8.13277 36.3562 8.73996C36.6771 9.34716 36.8375 10.0737 36.8375 10.9195C36.8375 11.768 36.6771 12.4972 36.3562 13.107C36.038 13.7169 35.5807 14.1849 34.9841 14.511C34.3901 14.8371 33.6795 15.0002 32.8522 15.0002ZM31.6869 13.5246H32.7807C33.2897 13.5246 33.718 13.4345 34.0653 13.2542C34.4153 13.0712 34.6778 12.7888 34.8528 12.407C35.0305 12.0225 35.1193 11.5267 35.1193 10.9195C35.1193 10.3176 35.0305 9.82576 34.8528 9.44394C34.6778 9.06212 34.4166 8.78106 34.0693 8.60076C33.7219 8.42046 33.2937 8.3303 32.7846 8.3303H31.6869V13.5246Z" fill="white"></path><path d="M43.1444 6.85474H44.8666V12.1445C44.8666 12.7384 44.7247 13.2581 44.441 13.7036C44.16 14.1491 43.7662 14.4964 43.2598 14.7456C42.7533 14.9922 42.1634 15.1155 41.4899 15.1155C40.8138 15.1155 40.2225 14.9922 39.716 14.7456C39.2096 14.4964 38.8158 14.1491 38.5348 13.7036C38.2537 13.2581 38.1132 12.7384 38.1132 12.1445V6.85474H39.8353V11.9974C39.8353 12.3076 39.903 12.5833 40.0382 12.8246C40.1761 13.0659 40.3696 13.2555 40.6189 13.3934C40.8681 13.5313 41.1584 13.6002 41.4899 13.6002C41.824 13.6002 42.1143 13.5313 42.3609 13.3934C42.6102 13.2555 42.8024 13.0659 42.9376 12.8246C43.0755 12.5833 43.1444 12.3076 43.1444 11.9974V6.85474Z" fill="white"></path><path d="M46.2835 6.85474H48.4074L50.6505 12.3275H50.746L52.9892 6.85474H55.113V15.0002H53.4426V9.69849H53.375L51.267 14.9604H50.1295L48.0216 9.6786H47.9539V15.0002H46.2835V6.85474Z" fill="white"></path><path d="M57.9359 15.0002H56.0905L58.9024 6.85474H61.1217L63.9297 15.0002H62.0842L60.0439 8.7161H59.9802L57.9359 15.0002ZM57.8206 11.7985H62.1797V13.1428H57.8206V11.7985Z" fill="white"></path><path d="M23.1069 15.0002V6.85474H28.5956V8.27462H24.8291V10.2155H28.3132V11.6354H24.8291V13.5803H28.6115V15.0002H23.1069Z" fill="white"></path><path d="M32.8522 15.0002H29.9647V6.85474H32.8761C33.6954 6.85474 34.4007 7.0178 34.992 7.34394C35.5833 7.66743 36.038 8.13277 36.3562 8.73996C36.6771 9.34716 36.8375 10.0737 36.8375 10.9195C36.8375 11.768 36.6771 12.4972 36.3562 13.107C36.038 13.7169 35.5807 14.1849 34.9841 14.511C34.3901 14.8371 33.6795 15.0002 32.8522 15.0002ZM31.6869 13.5246H32.7807C33.2897 13.5246 33.718 13.4345 34.0653 13.2542C34.4153 13.0712 34.6778 12.7888 34.8528 12.407C35.0305 12.0225 35.1193 11.5267 35.1193 10.9195C35.1193 10.3176 35.0305 9.82576 34.8528 9.44394C34.6778 9.06212 34.4166 8.78106 34.0693 8.60076C33.7219 8.42046 33.2937 8.3303 32.7846 8.3303H31.6869V13.5246Z" fill="white"></path><path d="M43.1444 6.85474H44.8666V12.1445C44.8666 12.7384 44.7247 13.2581 44.441 13.7036C44.16 14.1491 43.7662 14.4964 43.2598 14.7456C42.7533 14.9922 42.1634 15.1155 41.4899 15.1155C40.8138 15.1155 40.2225 14.9922 39.716 14.7456C39.2096 14.4964 38.8158 14.1491 38.5348 13.7036C38.2537 13.2581 38.1132 12.7384 38.1132 12.1445V6.85474H39.8353V11.9974C39.8353 12.3076 39.903 12.5833 40.0382 12.8246C40.1761 13.0659 40.3696 13.2555 40.6189 13.3934C40.8681 13.5313 41.1584 13.6002 41.4899 13.6002C41.824 13.6002 42.1143 13.5313 42.3609 13.3934C42.6102 13.2555 42.8024 13.0659 42.9376 12.8246C43.0755 12.5833 43.1444 12.3076 43.1444 11.9974V6.85474Z" fill="white"></path><path d="M46.2835 6.85474H48.4074L50.6505 12.3275H50.746L52.9892 6.85474H55.113V15.0002H53.4426V9.69849H53.375L51.267 14.9604H50.1295L48.0216 9.6786H47.9539V15.0002H46.2835V6.85474Z" fill="white"></path><path d="M57.9359 15.0002H56.0905L58.9024 6.85474H61.1217L63.9297 15.0002H62.0842L60.0439 8.7161H59.9802L57.9359 15.0002ZM57.8206 11.7985H62.1797V13.1428H57.8206V11.7985Z" fill="white"></path><path d="M23.1069 15.0002V6.85474H28.5956V8.27462H24.8291V10.2155H28.3132V11.6354H24.8291V13.5803H28.6115V15.0002H23.1069Z" stroke="white" stroke-width="0.5"></path><path d="M32.8522 15.0002H29.9647V6.85474H32.8761C33.6954 6.85474 34.4007 7.0178 34.992 7.34394C35.5833 7.66743 36.038 8.13277 36.3562 8.73996C36.6771 9.34716 36.8375 10.0737 36.8375 10.9195C36.8375 11.768 36.6771 12.4972 36.3562 13.107C36.038 13.7169 35.5807 14.1849 34.9841 14.511C34.3901 14.8371 33.6795 15.0002 32.8522 15.0002ZM31.6869 13.5246H32.7807C33.2897 13.5246 33.718 13.4345 34.0653 13.2542C34.4153 13.0712 34.6778 12.7888 34.8528 12.407C35.0305 12.0225 35.1193 11.5267 35.1193 10.9195C35.1193 10.3176 35.0305 9.82576 34.8528 9.44394C34.6778 9.06212 34.4166 8.78106 34.0693 8.60076C33.7219 8.42046 33.2937 8.3303 32.7846 8.3303H31.6869V13.5246Z" stroke="white" stroke-width="0.5"></path><path d="M43.1444 6.85474H44.8666V12.1445C44.8666 12.7384 44.7247 13.2581 44.441 13.7036C44.16 14.1491 43.7662 14.4964 43.2598 14.7456C42.7533 14.9922 42.1634 15.1155 41.4899 15.1155C40.8138 15.1155 40.2225 14.9922 39.716 14.7456C39.2096 14.4964 38.8158 14.1491 38.5348 13.7036C38.2537 13.2581 38.1132 12.7384 38.1132 12.1445V6.85474H39.8353V11.9974C39.8353 12.3076 39.903 12.5833 40.0382 12.8246C40.1761 13.0659 40.3696 13.2555 40.6189 13.3934C40.8681 13.5313 41.1584 13.6002 41.4899 13.6002C41.824 13.6002 42.1143 13.5313 42.3609 13.3934C42.6102 13.2555 42.8024 13.0659 42.9376 12.8246C43.0755 12.5833 43.1444 12.3076 43.1444 11.9974V6.85474Z" stroke="white" stroke-width="0.5"></path><path d="M46.2835 6.85474H48.4074L50.6505 12.3275H50.746L52.9892 6.85474H55.113V15.0002H53.4426V9.69849H53.375L51.267 14.9604H50.1295L48.0216 9.6786H47.9539V15.0002H46.2835V6.85474Z" stroke="white" stroke-width="0.5"></path><path d="M57.9359 15.0002H56.0905L58.9024 6.85474H61.1217L63.9297 15.0002H62.0842L60.0439 8.7161H59.9802L57.9359 15.0002ZM57.8206 11.7985H62.1797V13.1428H57.8206V11.7985Z" stroke="white" stroke-width="0.5"></path><path d="M23.1069 15.0002V6.85474H28.5956V8.27462H24.8291V10.2155H28.3132V11.6354H24.8291V13.5803H28.6115V15.0002H23.1069Z" stroke="white" stroke-width="0.5"></path><path d="M32.8522 15.0002H29.9647V6.85474H32.8761C33.6954 6.85474 34.4007 7.0178 34.992 7.34394C35.5833 7.66743 36.038 8.13277 36.3562 8.73996C36.6771 9.34716 36.8375 10.0737 36.8375 10.9195C36.8375 11.768 36.6771 12.4972 36.3562 13.107C36.038 13.7169 35.5807 14.1849 34.9841 14.511C34.3901 14.8371 33.6795 15.0002 32.8522 15.0002ZM31.6869 13.5246H32.7807C33.2897 13.5246 33.718 13.4345 34.0653 13.2542C34.4153 13.0712 34.6778 12.7888 34.8528 12.407C35.0305 12.0225 35.1193 11.5267 35.1193 10.9195C35.1193 10.3176 35.0305 9.82576 34.8528 9.44394C34.6778 9.06212 34.4166 8.78106 34.0693 8.60076C33.7219 8.42046 33.2937 8.3303 32.7846 8.3303H31.6869V13.5246Z" stroke="white" stroke-width="0.5"></path><path d="M43.1444 6.85474H44.8666V12.1445C44.8666 12.7384 44.7247 13.2581 44.441 13.7036C44.16 14.1491 43.7662 14.4964 43.2598 14.7456C42.7533 14.9922 42.1634 15.1155 41.4899 15.1155C40.8138 15.1155 40.2225 14.9922 39.716 14.7456C39.2096 14.4964 38.8158 14.1491 38.5348 13.7036C38.2537 13.2581 38.1132 12.7384 38.1132 12.1445V6.85474H39.8353V11.9974C39.8353 12.3076 39.903 12.5833 40.0382 12.8246C40.1761 13.0659 40.3696 13.2555 40.6189 13.3934C40.8681 13.5313 41.1584 13.6002 41.4899 13.6002C41.824 13.6002 42.1143 13.5313 42.3609 13.3934C42.6102 13.2555 42.8024 13.0659 42.9376 12.8246C43.0755 12.5833 43.1444 12.3076 43.1444 11.9974V6.85474Z" stroke="white" stroke-width="0.5"></path><path d="M46.2835 6.85474H48.4074L50.6505 12.3275H50.746L52.9892 6.85474H55.113V15.0002H53.4426V9.69849H53.375L51.267 14.9604H50.1295L48.0216 9.6786H47.9539V15.0002H46.2835V6.85474Z" stroke="white" stroke-width="0.5"></path><path d="M57.9359 15.0002H56.0905L58.9024 6.85474H61.1217L63.9297 15.0002H62.0842L60.0439 8.7161H59.9802L57.9359 15.0002ZM57.8206 11.7985H62.1797V13.1428H57.8206V11.7985Z" stroke="white" stroke-width="0.5"></path><g clip-path="url(#clip0_381_905)"><path d="M16.5598 12.2053L16.5553 13.8336L10.738 17.4674L4.87925 13.8039L4.88317 12.1771L2.72345 10.8263L2.71338 14.9922V15L7.41604 17.941L10.7304 20.0134L10.738 20.0179L18.7153 15.0347L18.7262 10.8517L16.5598 12.2053Z" fill="#FFB606"></path><path d="M14.7418 2.52805L10.7079 0.0100098L0.0214844 6.68889L10.7096 13.3608L10.7169 13.3653L12.7398 12.1018L12.7588 12.0897L4.10065 6.68497L10.704 2.55798L12.7118 3.81141L17.3216 6.68889L15.0576 8.10344L10.4366 5.21868L10.4293 5.21421L8.38792 6.49001L15.0503 10.6492L15.0576 10.6539L21.4055 6.68805L14.7418 2.52805Z" fill="#FFB606"></path><path d="M1.37191 7.10291H0.686035V12.0095H1.37191V7.10291Z" fill="#FFB606"></path><path d="M1.02945 14.2618C0.688473 14.2618 0.412109 13.9642 0.412109 13.5966V11.5793C0.412109 11.212 0.688473 10.9141 1.02945 10.9141C1.37043 10.9141 1.64679 11.2117 1.64679 11.5793V13.5966C1.64652 13.9639 1.37015 14.2618 1.02945 14.2618Z" fill="#FFB606"></path></g><defs><clipPath id="clip0_381_905"><rect width="21.3986" height="20" fill="white"></rect></clipPath></defs></svg>