<svg xmlns="http://www.w3.org/2000/svg" width="16" height="16" viewBox="0 0 16 16" fill="none"><g id="Iconsax/Linear/category" clip-path="url(#clip0_1219_6305)"><path id="Vector" d="M3.33203 6.66665H4.66536C5.9987 6.66665 6.66536 5.99998 6.66536 4.66665V3.33331C6.66536 1.99998 5.9987 1.33331 4.66536 1.33331H3.33203C1.9987 1.33331 1.33203 1.99998 1.33203 3.33331V4.66665C1.33203 5.99998 1.9987 6.66665 3.33203 6.66665ZM11.332 6.66665H12.6654C13.9987 6.66665 14.6654 5.99998 14.6654 4.66665V3.33331C14.6654 1.99998 13.9987 1.33331 12.6654 1.33331H11.332C9.9987 1.33331 9.33203 1.99998 9.33203 3.33331V4.66665C9.33203 5.99998 9.9987 6.66665 11.332 6.66665ZM11.332 14.6666H12.6654C13.9987 14.6666 14.6654 14 14.6654 12.6666V11.3333C14.6654 9.99998 13.9987 9.33331 12.6654 9.33331H11.332C9.9987 9.33331 9.33203 9.99998 9.33203 11.3333V12.6666C9.33203 14 9.9987 14.6666 11.332 14.6666ZM3.33203 14.6666H4.66536C5.9987 14.6666 6.66536 14 6.66536 12.6666V11.3333C6.66536 9.99998 5.9987 9.33331 4.66536 9.33331H3.33203C1.9987 9.33331 1.33203 9.99998 1.33203 11.3333V12.6666C1.33203 14 1.9987 14.6666 3.33203 14.6666Z" stroke="#8392A2" stroke-miterlimit="10" stroke-linecap="round" stroke-linejoin="round"></path></g><defs><clipPath id="clip0_1219_6305"><rect width="16" height="16" fill="white"></rect></clipPath></defs></svg>