<svg xmlns="http://www.w3.org/2000/svg" width="60" height="60" viewBox="0 0 60 60" fill="none"><path fill-rule="evenodd" clip-rule="evenodd" d="M18.2716 5.74381C19.2601 5.31155 19.711 4.1598 19.2788 3.1713C18.8465 2.1828 17.6948 1.73188 16.7063 2.16414C10.8282 4.73456 5.84066 8.95548 2.32696 14.2401C1.72961 15.1385 1.97368 16.3511 2.8721 16.9484C3.77052 17.5458 4.98308 17.3017 5.58042 16.4033C8.6832 11.7367 13.0875 8.0108 18.2716 5.74381ZM43.294 2.16414C42.3055 1.73188 41.1538 2.1828 40.7215 3.1713C40.2893 4.1598 40.7402 5.31155 41.7287 5.74381C46.9128 8.0108 51.3171 11.7367 54.4199 16.4033C55.0172 17.3017 56.2298 17.5458 57.1282 16.9484C58.0266 16.3511 58.2707 15.1385 57.6733 14.2401C54.1596 8.95548 49.1721 4.73456 43.294 2.16414ZM49.4027 47.9623C52.7471 43.7428 54.7442 38.4069 54.7442 32.6046C54.7442 18.9388 43.6659 7.86045 30.0001 7.86045C16.3343 7.86045 5.25597 18.9388 5.25597 32.6046C5.25597 38.4068 7.25303 43.7426 10.5973 47.962L5.04072 54.8163C4.3613 55.6543 4.48993 56.8845 5.32801 57.5639C6.16609 58.2433 7.39626 58.1147 8.07567 57.2766L13.2855 50.8502C17.6884 54.8859 23.5567 57.3487 30.0001 57.3487C36.4434 57.3487 42.3115 54.8859 46.7145 50.8504L51.9244 57.2767C52.6038 58.1147 53.834 58.2433 54.672 57.5639C55.5101 56.8845 55.6387 55.6543 54.9593 54.8162L49.4027 47.9623ZM29.9999 17.6279C31.0788 17.6279 31.9534 18.5025 31.9534 19.5814V31.5591L38.8975 36.1885C39.7952 36.7869 40.0377 37.9998 39.4393 38.8975C38.8408 39.7952 37.628 40.0377 36.7303 39.4393L28.9163 34.23C28.3729 33.8677 28.0465 33.2577 28.0465 32.6046V19.5814C28.0465 18.5025 28.9211 17.6279 29.9999 17.6279Z" fill="#FF971A"></path></svg>