<svg xmlns="http://www.w3.org/2000/svg" width="60" height="60" viewBox="0 0 60 60" fill="none"><path fill-rule="evenodd" clip-rule="evenodd" d="M27.2 5H32.8C46.7176 5 58 16.2824 58 30.2C58 44.1176 46.7176 55.4 32.8 55.4H13.2C7.01441 55.4 2 50.3856 2 44.2V30.2C2 16.2824 13.2824 5 27.2 5ZM30 33C31.5464 33 32.8 31.7464 32.8 30.2C32.8 28.6536 31.5464 27.4 30 27.4C28.4536 27.4 27.2 28.6536 27.2 30.2C27.2 31.7464 28.4536 33 30 33ZM44 30.2C44 31.7464 42.7464 33 41.2 33C39.6536 33 38.4 31.7464 38.4 30.2C38.4 28.6536 39.6536 27.4 41.2 27.4C42.7464 27.4 44 28.6536 44 30.2ZM18.8 33C20.3464 33 21.6 31.7464 21.6 30.2C21.6 28.6536 20.3464 27.4 18.8 27.4C17.2536 27.4 16 28.6536 16 30.2C16 31.7464 17.2536 33 18.8 33Z" fill="#00D084"></path></svg>