<svg xmlns="http://www.w3.org/2000/svg" width="60" height="60" viewBox="0 0 60 60" fill="none"><g clip-path="url(#clip0_1_414)"><path d="M54.9141 26.3326L54.2891 25.25C54.1172 24.954 53.7344 24.8527 53.4375 25.0241L45 29.9309V28.6925C45 26.6285 43.3203 24.954 41.25 24.954H30V29.7985C30 31.0446 29.1484 32.1973 27.9219 32.392C26.3594 32.6491 25 31.4418 25 29.9309V22.5863C25 21.5115 25.5547 20.5145 26.4688 19.946L29.0781 18.3182C29.9688 17.7652 31 17.4692 32.0547 17.4692H40.1172L49.375 12.2509C49.6719 12.0795 49.7813 11.6979 49.6094 11.4019L48.9844 10.3115C48.8125 10.0156 48.4297 9.90654 48.1328 10.0779L39.4609 14.9847H32.0625C30.5391 14.9847 29.0469 15.413 27.7578 16.2153L25.1406 17.8431C23.7734 18.6998 22.8985 20.0706 22.625 21.6205L17.7422 24.5023C16.0547 25.5148 15 27.3606 15 29.3234V32.3297L5.31251 37.8129C5.01564 37.9842 4.90626 38.3658 5.07814 38.6618L5.70314 39.7444C5.87501 40.0404 6.25783 40.1494 6.5547 39.9781L17.5 33.7784V29.3234C17.5 28.233 18.086 27.2049 19.0156 26.6441L22.5 24.5879V29.7206C22.5 32.3219 24.3985 34.6507 27 34.9C29.9766 35.1881 32.5 32.8516 32.5 29.9387V27.4463H41.25C41.9375 27.4463 42.5 28.0071 42.5 28.6925V31.1848C42.5 31.8702 41.9375 32.431 41.25 32.431H39.375V35.2349C39.375 36.777 38.125 38.0231 36.5781 38.0231H35.3203V39.2693C35.3203 40.9984 33.9141 42.4003 32.1797 42.4003H23.6328L14.6016 47.642C14.3047 47.8133 14.2031 48.195 14.375 48.4909L15 49.5658C15.1719 49.8617 15.5547 49.963 15.8516 49.7916L24.3047 44.8926H32.1797C34.8984 44.8926 37.1797 42.9611 37.711 40.3987C40.0859 39.8768 41.875 37.7583 41.875 35.2349V34.8688C42.9375 34.6897 43.7969 34.0432 44.3594 33.1787L54.6875 27.1815C54.9844 27.0102 55.086 26.6285 54.9141 26.3326Z" fill="#356DF1"></path></g><defs><clipPath id="clip0_1_414"><rect width="50" height="39.8773" fill="white" transform="translate(5 10)"></rect></clipPath></defs></svg>