<svg xmlns="http://www.w3.org/2000/svg" width="40" height="40" viewBox="0 0 40 40" fill="none"><path d="M0.0772296 20.9204C0.301607 18.9125 1.97034 17.0809 4.10975 16.77C5.87556 16.515 7.6696 16.5259 9.43218 16.8023C10.4194 16.9568 11.2429 17.4921 11.9369 18.2101C12.0913 18.3698 12.1456 18.4429 11.9097 18.6046C8.93333 20.624 7.21346 23.4282 6.73862 26.9901C6.68957 27.3501 6.6833 27.7206 6.66348 28.0796C6.65617 28.2163 6.66347 28.3342 6.46414 28.3321C5.31617 28.3175 4.16819 28.3718 3.03066 28.2873C1.54872 28.1777 0.461278 27.1821 0.0855771 25.7398C0.066792 25.6688 0.0907944 25.5791 0 25.5384V21.3211C0.105405 21.199 0.00104578 21.0446 0.0772296 20.9204Z" fill="#356DF1"></path><path d="M19.9716 34.9873C18.3582 34.9873 16.7448 34.9873 15.1314 34.9873C12.203 34.9873 10.0104 32.7874 10.0041 29.8569C10.0041 28.4929 9.96444 27.131 10.3892 25.8014C11.4756 22.4023 14.645 20.025 18.2163 20.0031C19.7107 19.9937 21.2083 19.9102 22.7038 20.0667C26.1738 20.4299 29.2222 23.2414 29.8338 26.6853C30.0989 28.1777 30.1625 29.6972 29.8338 31.1833C29.3558 33.3749 27.3291 34.9602 25.0895 34.9831C23.3853 34.9998 21.68 34.9831 19.9758 34.9831L19.9716 34.9873Z" fill="#356DF1"></path><path d="M13.3437 11.6447C13.3445 10.7695 13.518 9.90299 13.8544 9.09494C14.1908 8.28689 14.6833 7.55318 15.3038 6.93588C15.9243 6.31858 16.6606 5.82982 17.4704 5.49763C18.2801 5.16544 19.1475 4.99635 20.0228 5.00006C20.8985 5.00319 21.765 5.17924 22.5725 5.51808C23.38 5.85693 24.1126 6.35192 24.7283 6.97462C25.3441 7.59733 25.8308 8.3355 26.1605 9.14678C26.4902 9.95805 26.6565 10.8265 26.6497 11.7021C26.6406 13.4639 25.9345 15.1504 24.6857 16.3932C23.4369 17.6359 21.747 18.3338 19.9852 18.3343C18.2177 18.3269 16.5255 17.6181 15.2802 16.3638C14.0349 15.1095 13.3384 13.4122 13.3437 11.6447Z" fill="#356DF1"></path><path d="M39.9715 23.2862C39.9715 23.9886 40.0446 24.7003 39.9569 25.3912C39.7398 27.1121 38.4071 28.2757 36.6559 28.3238C35.6415 28.3519 34.6261 28.3238 33.6117 28.3363C33.3362 28.3363 33.3372 28.2058 33.3279 28.0044C33.1525 24.2919 31.5996 21.2922 28.6692 19.0053C28.4894 18.8556 28.2966 18.7222 28.0931 18.6067C27.851 18.4793 27.8844 18.3833 28.0545 18.2132C28.977 17.274 30.0947 16.7209 31.4076 16.677C32.7967 16.6301 34.193 16.58 35.5821 16.7094C37.9657 16.9317 39.9214 19.0492 39.9913 21.4526C40.0091 22.0631 39.9913 22.6747 39.9913 23.2862H39.9715Z" fill="#356DF1"></path><path d="M11.6614 9.9927C11.6629 10.6507 11.5343 11.3024 11.283 11.9105C11.0317 12.5186 10.6627 13.0711 10.1972 13.536C9.73161 14.001 9.17873 14.3693 8.57032 14.6198C7.96191 14.8704 7.30997 14.9981 6.65201 14.9958C5.33189 14.9856 4.0689 14.4559 3.13658 13.5212C2.20426 12.5866 1.67766 11.3222 1.67084 10.0021C1.67333 8.67408 2.20305 7.40139 3.14357 6.46381C4.08409 5.52622 5.35843 5.00048 6.68645 5.00214C8.00748 5.00573 9.27315 5.53317 10.2058 6.46876C11.1384 7.40434 11.6619 8.67166 11.6614 9.9927Z" fill="#356DF1"></path><path d="M28.3373 9.98638C28.3373 9.32883 28.4674 8.67779 28.7201 8.07074C28.9728 7.46369 29.3431 6.91264 29.8097 6.44934C30.2763 5.98604 30.83 5.61964 31.4388 5.37125C32.0476 5.12287 32.6996 4.9974 33.3571 5.00208C34.6787 5.01363 35.9424 5.54626 36.8735 6.48424C37.8047 7.42221 38.328 8.68975 38.3299 10.0114C38.3211 11.3398 37.7858 12.6106 36.8415 13.5449C35.8971 14.4793 34.6208 15.001 33.2924 14.9957C31.9719 14.9858 30.7091 14.4531 29.7804 13.5143C28.8518 12.5754 28.3329 11.3069 28.3373 9.98638Z" fill="#356DF1"></path></svg>