<svg xmlns="http://www.w3.org/2000/svg" width="60" height="60" viewBox="0 0 60 60" fill="none"><path d="M46.1172 14.8984C41.8594 11.2734 35.4922 11.8749 31.5391 15.9531L30 17.5468L28.4609 15.9609C25.2734 12.664 18.8438 10.6796 13.8828 14.8984C8.97657 19.0859 8.71876 26.6015 13.1094 31.1328L28.2266 46.7421C28.7109 47.2421 29.3516 47.5 29.9922 47.5C30.6328 47.5 31.2735 47.25 31.7578 46.7421L46.875 31.1328C51.2813 26.6015 51.0234 19.0859 46.1172 14.8984ZM45.0938 29.3984L30.0313 45.0078L14.9063 29.3984C11.9063 26.3046 11.2813 20.4062 15.5078 16.8046C19.7891 13.1484 24.8203 15.7968 26.6641 17.7031L30 21.1484L33.336 17.7031C35.1485 15.8281 40.2266 13.1718 44.4922 16.8046C48.7109 20.3984 48.0938 26.2968 45.0938 29.3984Z" fill="#356DF1"></path></svg>