<svg xmlns="http://www.w3.org/2000/svg" width="60" height="60" viewBox="0 0 60 60" fill="none"><g clip-path="url(#clip0_1_417)"><path d="M30 14.9999C25.1719 15.0078 21.2578 18.9218 21.25 23.7499C21.25 24.4374 21.8125 24.9999 22.5 24.9999C23.1875 24.9999 23.75 24.4374 23.75 23.7499C23.75 20.2968 26.5469 17.4999 30 17.4999C30.6875 17.4999 31.25 16.9374 31.25 16.2499C31.25 15.5624 30.6875 14.9999 30 14.9999ZM30 9.99995C21.9609 9.99995 16.2422 16.5312 16.25 23.7656C16.25 27.0859 17.4609 30.2968 19.6562 32.7968C21.6641 35.0781 23.5859 38.8046 23.75 39.9999L23.7578 45.8749C23.7578 46.1171 23.8281 46.3593 23.9688 46.5624L25.8828 49.4374C26.1172 49.789 26.5078 49.9921 26.9219 49.9921H33.0859C33.5078 49.9921 33.8984 49.7812 34.125 49.4374L36.0391 46.5546C36.1719 46.3515 36.25 46.1093 36.25 45.8671V39.9999C36.4219 38.7734 38.3594 35.0624 40.3438 32.7968C45.3438 27.0859 44.7656 18.4062 39.0547 13.4062C36.5547 11.2109 33.3359 9.99995 30 9.99995ZM33.7422 45.4921L32.4062 47.4999H27.5859L26.25 45.4921V44.9999H33.75L33.7422 45.4921ZM33.75 42.4999H26.25L26.2422 39.9999H33.75V42.4999ZM38.4688 31.1484C37.375 32.3984 35.6328 34.9062 34.5156 37.4999H25.4844C24.3672 34.9062 22.625 32.3984 21.5312 31.1484C19.7344 29.1015 18.75 26.4687 18.75 23.7499C18.7422 17.7343 23.4688 12.4999 30 12.4999C36.2031 12.4999 41.25 17.5468 41.25 23.7499C41.25 26.4687 40.2578 29.1015 38.4688 31.1484ZM12.5 23.7499C12.5 23.0624 11.9375 22.4999 11.25 22.4999H6.25C5.5625 22.4999 5 23.0624 5 23.7499C5 24.4374 5.5625 24.9999 6.25 24.9999H11.25C11.9375 24.9999 12.5 24.4374 12.5 23.7499ZM46.25 14.9999C46.4453 14.9999 46.6328 14.9531 46.8125 14.8671L51.8125 12.3671C52.4297 12.0546 52.6797 11.3046 52.375 10.6874C52.0703 10.0703 51.3125 9.82026 50.6953 10.1249L45.6953 12.6249C45.0781 12.9374 44.8281 13.6874 45.1328 14.3046C45.3438 14.7343 45.7734 14.9999 46.25 14.9999ZM53.75 22.4999H48.75C48.0625 22.4999 47.5 23.0624 47.5 23.7499C47.5 24.4374 48.0625 24.9999 48.75 24.9999H53.75C54.4375 24.9999 55 24.4374 55 23.7499C55 23.0624 54.4375 22.4999 53.75 22.4999ZM14.3125 12.6328L9.3125 10.1328C8.69531 9.82026 7.94531 10.0703 7.63281 10.6874C7.32031 11.3046 7.57031 12.0546 8.1875 12.3671L13.1875 14.8671C13.3594 14.9531 13.5547 14.9999 13.75 14.9999C14.4375 14.9999 15 14.4374 15 13.7499C15 13.2734 14.7344 12.8437 14.3125 12.6328ZM51.8125 35.1328L46.8125 32.6328C46.1953 32.3203 45.4453 32.5703 45.1328 33.1953C44.8203 33.8124 45.0703 34.5624 45.6953 34.8749L50.6953 37.3749C51.3125 37.6874 52.0625 37.4374 52.375 36.8124C52.6797 36.1953 52.4297 35.4374 51.8125 35.1328ZM13.75 32.4999C13.5547 32.4999 13.3672 32.5468 13.1875 32.6328L8.1875 35.1328C7.57031 35.4453 7.32031 36.1953 7.625 36.8124C7.9375 37.4296 8.6875 37.6796 9.30469 37.3749L14.3047 34.8749C14.9219 34.5703 15.1719 33.8203 14.8672 33.1953C14.6562 32.7656 14.2266 32.4999 13.75 32.4999Z" fill="#356DF1"></path></g><defs><clipPath id="clip0_1_417"><rect width="50" height="40" fill="white" transform="translate(5 10)"></rect></clipPath></defs></svg>