<svg xmlns="http://www.w3.org/2000/svg" width="16" height="16" viewBox="0 0 16 16" fill="none"><g clip-path="url(#clip0_384_345)"><path d="M14.6668 8.00001C14.6668 11.6819 11.6821 14.6667 8.00016 14.6667M14.6668 8.00001C14.6668 4.31811 11.6821 1.33334 8.00016 1.33334M14.6668 8.00001C14.6668 6.89544 11.6821 6.00001 8.00016 6.00001C4.31826 6.00001 1.3335 6.89544 1.3335 8.00001M14.6668 8.00001C14.6668 9.10458 11.6821 10 8.00016 10C4.31826 10 1.3335 9.10458 1.3335 8.00001M8.00016 14.6667C4.31826 14.6667 1.3335 11.6819 1.3335 8.00001M8.00016 14.6667C9.47292 14.6667 10.6668 11.6819 10.6668 8.00001C10.6668 4.31811 9.47292 1.33334 8.00016 1.33334M8.00016 14.6667C6.5274 14.6667 5.3335 11.6819 5.3335 8.00001C5.3335 4.31811 6.5274 1.33334 8.00016 1.33334M1.3335 8.00001C1.3335 4.31811 4.31826 1.33334 8.00016 1.33334" stroke="#082645"></path></g><defs><clipPath id="clip0_384_345"><rect width="16" height="16" fill="white"></rect></clipPath></defs></svg>