<svg xmlns="http://www.w3.org/2000/svg" width="16" height="16" viewBox="0 0 16 16" fill="none"><g clip-path="url(#clip0_384_414)"><path d="M15.4801 7.03999L15.0001 6.59999C14.8401 6.39999 14.7201 5.99999 14.8001 5.71999L14.9601 5.07999C15.0401 4.71999 15.0001 4.35999 14.8401 4.07999C14.6401 3.75999 14.3601 3.55999 14.0401 3.43999L13.4001 3.27999C13.1601 3.19999 12.8401 2.91999 12.7601 2.63999L12.6001 1.99999C12.4001 1.31999 11.6401 0.879991 10.9601 1.03999L10.3201 1.19999C10.0401 1.31999 9.60012 1.19999 9.40012 1.03999L8.92012 0.599991C8.40012 0.0799915 7.52012 0.0799915 7.00012 0.599991L6.52012 1.03999C6.40012 1.19999 5.96012 1.31999 5.72012 1.27999L5.08012 1.11999C4.36012 0.919991 3.60012 1.35999 3.44012 2.03999L3.28012 2.67999C3.20012 2.91999 2.88012 3.23999 2.64012 3.27999L2.00012 3.47999C1.64012 3.55999 1.36012 3.79999 1.20012 4.11999C1.00012 4.43999 0.960117 4.79999 1.08012 5.11999L1.20012 5.71999C1.28012 5.99999 1.16012 6.39999 0.960117 6.59999L0.520117 7.03999C0.280117 7.27999 0.120117 7.63999 0.120117 7.99999C0.120117 8.35999 0.240117 8.67999 0.520117 8.95999L0.960117 9.39999C1.16012 9.59999 1.28012 9.99999 1.20012 10.24L1.04012 10.88C0.960117 11.24 1.00012 11.6 1.16012 11.88C1.36012 12.2 1.64012 12.4 1.96012 12.52L2.60012 12.68C2.84012 12.76 3.16012 13.04 3.24012 13.32L3.40012 13.96C3.60012 14.64 4.36012 15.08 5.04012 14.92L5.68012 14.76C5.92012 14.68 6.36012 14.8 6.56012 15L7.04012 15.44C7.28012 15.68 7.64012 15.84 8.00012 15.84C8.36012 15.84 8.72012 15.72 8.96012 15.44L9.44012 15C9.64012 14.84 10.0801 14.72 10.3201 14.76L10.9601 14.92C11.0801 14.96 11.2001 14.96 11.3201 14.96C11.9201 14.96 12.4801 14.56 12.6401 13.96L12.8001 13.32C12.8801 13.08 13.2001 12.76 13.4401 12.68L14.0801 12.52C14.8001 12.32 15.2401 11.6 15.0401 10.88L14.8001 10.24C14.7201 9.99999 14.8401 9.55999 15.0401 9.35999L15.5201 8.91999C16.0001 8.39999 16.0001 7.55999 15.4801 7.03999Z" fill="#082645"></path><path d="M11.5201 6.28L7.32008 10.44C7.20008 10.56 7.08008 10.6 6.96008 10.6C6.84008 10.6 6.68008 10.56 6.60008 10.44L4.48008 8.36C4.28008 8.16 4.28008 7.84 4.48008 7.64C4.68008 7.44 5.00008 7.44 5.24008 7.64L6.96008 9.36L10.8001 5.56C11.0001 5.36 11.3201 5.36 11.5601 5.56C11.8001 5.76 11.7201 6.08 11.5201 6.28Z" fill="white"></path></g><defs><clipPath id="clip0_384_414"><rect width="16" height="16" fill="white"></rect></clipPath></defs></svg>