<svg xmlns="http://www.w3.org/2000/svg" width="40" height="40" viewBox="0 0 40 40" fill="none"><path d="M16.6666 30C16.6666 31.841 18.159 33.3334 20 33.3334C21.8409 33.3334 23.3333 31.841 23.3333 30V23.3334H30C31.8409 23.3334 33.3333 21.841 33.3333 20C33.3333 18.1591 31.8409 16.6667 30 16.6667H23.3333V10C23.3333 8.15907 21.8409 6.66669 20 6.66669C18.159 6.66669 16.6666 8.15907 16.6666 10V16.6667L9.99996 16.6667C8.15901 16.6667 6.66663 18.1591 6.66663 20C6.66663 21.841 8.15901 23.3334 9.99996 23.3334L16.6666 23.3334V30Z" fill="#356DF1"></path></svg>