<svg xmlns="http://www.w3.org/2000/svg" width="40" height="40" viewBox="0 0 40 40" fill="none"><path fill-rule="evenodd" clip-rule="evenodd" d="M14.0105 6.48433L11.6667 10H10C6.31811 10 3.33334 12.9848 3.33334 16.6667V28.3333C3.33334 32.0152 6.31811 35 10 35H30C33.6819 35 36.6667 32.0152 36.6667 28.3333V16.6667C36.6667 12.9848 33.6819 10 30 10H28.3333L25.9896 6.48433C25.3713 5.557 24.3306 5 23.2161 5H16.784C15.6694 5 14.6287 5.557 14.0105 6.48433ZM25 22.5C25 25.2614 22.7614 27.5 20 27.5C17.2386 27.5 15 25.2614 15 22.5C15 19.7386 17.2386 17.5 20 17.5C22.7614 17.5 25 19.7386 25 22.5ZM20 11.6667C20.9205 11.6667 21.6667 10.9205 21.6667 10C21.6667 9.07953 20.9205 8.33333 20 8.33333C19.0795 8.33333 18.3333 9.07953 18.3333 10C18.3333 10.9205 19.0795 11.6667 20 11.6667Z" fill="#356DF1"></path></svg>