<svg xmlns="http://www.w3.org/2000/svg" width="60" height="60" viewBox="0 0 60 60" fill="none"><g clip-path="url(#clip0_1_420)"><path d="M54.8125 25.3984L49.0703 11.5468C48.5391 10.2734 47.0781 9.664 45.8047 10.1953L37.3203 13.7109C36.1328 14.2031 35.5625 15.5078 35.9141 16.7187L10.8672 28.8593C10.1797 29.1874 9.84375 29.9218 10.0937 30.5312L10.7734 32.1796L5.77344 34.2499C5.13281 34.5156 4.83594 35.2421 5.09375 35.8827L6.66406 39.664C6.92969 40.3046 7.65625 40.6015 8.29687 40.3437L13.3047 38.2656L13.9844 39.9218C14.3047 40.6874 15.1875 40.7343 15.7109 40.5546L26.1719 36.9296C26.2734 37.0468 26.3984 37.1484 26.5078 37.2577L22.5312 49.1796C22.4219 49.5078 22.6016 49.8593 22.9297 49.9687C22.9922 49.9921 23.0625 49.9999 23.125 49.9999H24.4375C24.7031 49.9999 24.9453 49.8281 25.0312 49.5703L28.7031 38.5546C29.6719 38.8203 30.3984 38.7968 31.2891 38.5546L34.9609 49.5703C35.0469 49.8281 35.2812 49.9999 35.5547 49.9999H36.875C37.2188 49.9999 37.5 49.7187 37.5 49.3749C37.5 49.3046 37.4922 49.2421 37.4688 49.1796L33.5078 37.3046C34.4297 36.3984 34.9531 35.164 34.9844 33.8749L42.0547 31.4218C42.5781 32.0859 43.7031 32.7109 44.9688 32.1874L53.4531 28.6718C54.7344 28.1406 55.3359 26.6796 54.8125 25.3984ZM8.49219 37.5546L7.88281 36.0781L11.7344 34.4843L12.3437 35.9609L8.49219 37.5546ZM30 36.2499C28.6172 36.2499 27.5 35.1328 27.5 33.7499C27.5 32.3671 28.6172 31.2499 30 31.2499C31.3828 31.2499 32.5 32.3671 32.5 33.7499C32.5 35.1328 31.3828 36.2499 30 36.2499ZM34.3984 31.4218C33.1406 28.9765 30.1406 28.0156 27.6953 29.2734C25.7266 30.289 24.6641 32.4765 25.0859 34.6484L15.8359 37.8593L12.8594 30.664L36.8281 19.039L41.0078 29.1249L34.3984 31.4218ZM44.0156 29.8749L38.2734 16.0156L46.7578 12.4999L52.5 26.3593L44.0156 29.8749Z" fill="#356DF1"></path></g><defs><clipPath id="clip0_1_420"><rect width="50" height="40" fill="white" transform="translate(5 10)"></rect></clipPath></defs></svg>