<svg xmlns="http://www.w3.org/2000/svg" width="58" height="20" viewBox="0 0 58 20" fill="none"><rect width="58" height="20" rx="4" fill="#FFDAF5"></rect><path d="M8.8608 14V5.27273H10.4418V8.96733H14.4858V5.27273H16.071V14H14.4858V10.2926H10.4418V14H8.8608ZM19.3714 5.27273V14H17.7905V5.27273H19.3714ZM21.0835 14V5.27273H24.3562C25.0266 5.27273 25.5891 5.3892 26.0437 5.62216C26.5011 5.85511 26.8462 6.18182 27.0792 6.60227C27.315 7.01989 27.4329 7.5071 27.4329 8.06392C27.4329 8.62358 27.3136 9.10937 27.0749 9.52131C26.8391 9.9304 26.4911 10.2472 26.0309 10.4716C25.5707 10.6932 25.0053 10.804 24.3349 10.804H22.0039V9.49148H24.1218C24.5138 9.49148 24.8349 9.4375 25.0849 9.32955C25.3349 9.21875 25.5195 9.05824 25.6388 8.84801C25.761 8.63494 25.8221 8.37358 25.8221 8.06392C25.8221 7.75426 25.761 7.49006 25.6388 7.27131C25.5167 7.04972 25.3306 6.8821 25.0806 6.76847C24.8306 6.65199 24.5082 6.59375 24.1133 6.59375H22.6644V14H21.0835ZM25.592 10.0455L27.7525 14H25.9883L23.8661 10.0455H25.592ZM30.4691 5.27273V14H28.8881V5.27273H30.4691ZM39.353 5.27273V14H37.9467L33.8345 8.0554H33.7621V14H32.1811V5.27273H33.5959L37.7038 11.2216H37.7805V5.27273H39.353ZM46.9222 8.05966C46.8512 7.82955 46.7532 7.62358 46.6282 7.44176C46.506 7.2571 46.3583 7.09943 46.185 6.96875C46.0146 6.83807 45.8185 6.74006 45.5969 6.67472C45.3754 6.60653 45.1339 6.57244 44.8725 6.57244C44.4038 6.57244 43.9862 6.69034 43.6197 6.92614C43.2532 7.16193 42.9648 7.50852 42.7546 7.96591C42.5472 8.42045 42.4435 8.97443 42.4435 9.62784C42.4435 10.2869 42.5472 10.8452 42.7546 11.3026C42.962 11.7599 43.2504 12.108 43.6197 12.3466C43.989 12.5824 44.418 12.7003 44.9066 12.7003C45.3498 12.7003 45.7333 12.6151 46.0572 12.4446C46.3839 12.2741 46.6353 12.0327 46.8114 11.7202C46.9876 11.4048 47.0756 11.0355 47.0756 10.6122L47.4336 10.6676H45.0643V9.43182H48.6055V10.4801C48.6055 11.2273 48.4464 11.8736 48.1282 12.419C47.81 12.9645 47.3725 13.3849 46.8157 13.6804C46.2589 13.973 45.6197 14.1193 44.8981 14.1193C44.0941 14.1193 43.3881 13.9389 42.7802 13.5781C42.1751 13.2145 41.7021 12.6989 41.3612 12.0312C41.0231 11.3608 40.854 10.5653 40.854 9.64489C40.854 8.94034 40.9535 8.31108 41.1523 7.7571C41.354 7.20312 41.6353 6.73295 41.9961 6.34659C42.3569 5.95739 42.7802 5.66193 43.266 5.46023C43.7518 5.25568 44.2802 5.15341 44.8512 5.15341C45.3342 5.15341 45.7844 5.22443 46.2021 5.36648C46.6197 5.50568 46.9904 5.70455 47.3143 5.96307C47.641 6.22159 47.9094 6.52841 48.1197 6.88352C48.3299 7.23864 48.4677 7.63068 48.533 8.05966H46.9222Z" fill="#EF6A85"></path></svg>