<svg xmlns="http://www.w3.org/2000/svg" width="45" height="20" viewBox="0 0 45 20" fill="none"><rect width="45" height="20" rx="4" fill="#E1E9FD"></rect><path d="M16.0327 5.27273V14H14.6264L10.5142 8.0554H10.4418V14H8.8608V5.27273H10.2756L14.3835 11.2216H14.4602V5.27273H16.0327ZM17.7553 14V5.27273H23.4315V6.59801H19.3363V8.96733H23.1374V10.2926H19.3363V12.6747H23.4656V14H17.7553ZM26.881 14L24.418 5.27273H26.1183L27.6907 11.6861H27.7717L29.4506 5.27273H30.9975L32.6808 11.6903H32.7575L34.3299 5.27273H36.0302L33.5671 14H32.0075L30.2603 7.87642H30.1921L28.4407 14H26.881Z" fill="#356DF1"></path></svg>