<svg xmlns="http://www.w3.org/2000/svg" width="74" height="20" viewBox="0 0 74 20" fill="none"><rect width="74" height="20" rx="4" fill="#D4F5E7"></rect><path d="M8.8608 14V5.27273H12.1335C12.804 5.27273 13.3665 5.39773 13.821 5.64773C14.2784 5.89773 14.6236 6.24148 14.8565 6.67898C15.0923 7.11364 15.2102 7.60795 15.2102 8.16193C15.2102 8.72159 15.0923 9.21875 14.8565 9.65341C14.6207 10.0881 14.2727 10.4304 13.8125 10.6804C13.3523 10.9276 12.7855 11.0511 12.1122 11.0511H9.94318V9.75142H11.8991C12.2912 9.75142 12.6122 9.68324 12.8622 9.54688C13.1122 9.41051 13.2969 9.22301 13.4162 8.98438C13.5384 8.74574 13.5994 8.47159 13.5994 8.16193C13.5994 7.85227 13.5384 7.57955 13.4162 7.34375C13.2969 7.10795 13.1108 6.92472 12.858 6.79403C12.608 6.66051 12.2855 6.59375 11.8906 6.59375H10.4418V14H8.8608ZM24.3817 9.63636C24.3817 10.5767 24.2056 11.3821 23.8533 12.0526C23.5039 12.7202 23.0266 13.2315 22.4215 13.5866C21.8192 13.9418 21.136 14.1193 20.3718 14.1193C19.6076 14.1193 18.9229 13.9418 18.3178 13.5866C17.7156 13.2287 17.2383 12.7159 16.886 12.0483C16.5366 11.3778 16.3619 10.5739 16.3619 9.63636C16.3619 8.69602 16.5366 7.89205 16.886 7.22443C17.2383 6.55398 17.7156 6.04119 18.3178 5.68608C18.9229 5.33097 19.6076 5.15341 20.3718 5.15341C21.136 5.15341 21.8192 5.33097 22.4215 5.68608C23.0266 6.04119 23.5039 6.55398 23.8533 7.22443C24.2056 7.89205 24.3817 8.69602 24.3817 9.63636ZM22.7923 9.63636C22.7923 8.97443 22.6886 8.41619 22.4812 7.96165C22.2766 7.50426 21.9925 7.15909 21.6289 6.92614C21.2653 6.69034 20.8462 6.57244 20.3718 6.57244C19.8974 6.57244 19.4783 6.69034 19.1147 6.92614C18.7511 7.15909 18.4656 7.50426 18.2582 7.96165C18.0536 8.41619 17.9513 8.97443 17.9513 9.63636C17.9513 10.2983 18.0536 10.858 18.2582 11.3153C18.4656 11.7699 18.7511 12.1151 19.1147 12.3509C19.4783 12.5838 19.8974 12.7003 20.3718 12.7003C20.8462 12.7003 21.2653 12.5838 21.6289 12.3509C21.9925 12.1151 22.2766 11.7699 22.4812 11.3153C22.6886 10.858 22.7923 10.2983 22.7923 9.63636ZM25.8764 14V5.27273H29.1491C29.8196 5.27273 30.3821 5.39773 30.8366 5.64773C31.294 5.89773 31.6392 6.24148 31.8722 6.67898C32.108 7.11364 32.2259 7.60795 32.2259 8.16193C32.2259 8.72159 32.108 9.21875 31.8722 9.65341C31.6364 10.0881 31.2884 10.4304 30.8281 10.6804C30.3679 10.9276 29.8011 11.0511 29.1278 11.0511H26.9588V9.75142H28.9148C29.3068 9.75142 29.6278 9.68324 29.8778 9.54688C30.1278 9.41051 30.3125 9.22301 30.4318 8.98438C30.554 8.74574 30.6151 8.47159 30.6151 8.16193C30.6151 7.85227 30.554 7.57955 30.4318 7.34375C30.3125 7.10795 30.1264 6.92472 29.8736 6.79403C29.6236 6.66051 29.3011 6.59375 28.9062 6.59375H27.4574V14H25.8764ZM39.1005 5.27273H40.6815V10.9744C40.6815 11.5994 40.5337 12.1491 40.2383 12.6236C39.9457 13.098 39.5337 13.4687 39.0025 13.7358C38.4712 14 37.8505 14.1321 37.1403 14.1321C36.4272 14.1321 35.805 14 35.2738 13.7358C34.7425 13.4687 34.3306 13.098 34.038 12.6236C33.7454 12.1491 33.5991 11.5994 33.5991 10.9744V5.27273H35.18V10.8423C35.18 11.206 35.2596 11.5298 35.4187 11.8139C35.5806 12.098 35.8079 12.321 36.1005 12.483C36.3931 12.642 36.7397 12.7216 37.1403 12.7216C37.5408 12.7216 37.8874 12.642 38.18 12.483C38.4755 12.321 38.7028 12.098 38.8619 11.8139C39.021 11.5298 39.1005 11.206 39.1005 10.8423V5.27273ZM42.3999 14V5.27273H43.9808V12.6747H47.8246V14H42.3999ZM50.6456 14H48.9581L52.0305 5.27273H53.9822L57.0589 14H55.3714L53.0405 7.0625H52.9723L50.6456 14ZM50.701 10.5781H55.3033V11.848H50.701V10.5781ZM58.2085 14V5.27273H61.4812C62.1516 5.27273 62.7141 5.3892 63.1687 5.62216C63.6261 5.85511 63.9712 6.18182 64.2042 6.60227C64.44 7.01989 64.5579 7.5071 64.5579 8.06392C64.5579 8.62358 64.4386 9.10937 64.1999 9.52131C63.9641 9.9304 63.6161 10.2472 63.1559 10.4716C62.6957 10.6932 62.1303 10.804 61.4599 10.804H59.1289V9.49148H61.2468C61.6388 9.49148 61.9599 9.4375 62.2099 9.32955C62.4599 9.21875 62.6445 9.05824 62.7638 8.84801C62.886 8.63494 62.9471 8.37358 62.9471 8.06392C62.9471 7.75426 62.886 7.49006 62.7638 7.27131C62.6417 7.04972 62.4556 6.8821 62.2056 6.76847C61.9556 6.65199 61.6332 6.59375 61.2383 6.59375H59.7894V14H58.2085ZM62.717 10.0455L64.8775 14H63.1133L60.9911 10.0455H62.717Z" fill="#00D084"></path></svg>