<svg xmlns="http://www.w3.org/2000/svg" width="60" height="60" viewBox="0 0 60 60" fill="none"><g clip-path="url(#clip0_127_489)"><path d="M59.3642 47.5379C58.9262 46.2659 57.9182 45.6659 56.7542 45.1379C54.1812 44.0547 51.9145 42.3546 50.1542 40.1879C48.5167 38.0033 47.4263 35.4583 46.9742 32.7659C46.7351 31.417 46.5828 30.0542 46.5182 28.6859C46.5182 28.2839 46.5842 28.1639 46.9982 28.1699C49.7462 28.1699 52.4882 28.1699 55.2302 28.1699C57.2642 28.1699 58.4402 27.0059 58.4402 24.9839L58.4402 6.83387C58.4402 4.77587 57.2402 3.59987 55.2062 3.59987L37.1102 3.59987C35.0162 3.59987 33.8582 4.76387 33.8582 6.86987C33.8582 11.9099 33.8582 16.9559 33.8582 21.9959C33.839 26.1891 34.1782 30.3764 34.8722 34.5119C35.8512 40.1687 38.6889 45.3374 42.9362 49.1999C45.8529 51.8837 49.21 54.0452 52.8602 55.5899C53.2052 55.7696 53.5834 55.8766 53.9715 55.9041C54.3595 55.9315 54.7491 55.8789 55.1159 55.7495C55.4828 55.6201 55.8191 55.4166 56.104 55.1518C56.3889 54.8869 56.6164 54.5663 56.7722 54.2099C57.6602 52.3799 58.6082 50.5739 59.3642 48.6779L59.3642 47.5379Z" fill="#8392A2"></path><path d="M12.3062 3.60011L3.30621 3.60011C1.14621 3.60011 0.000204834 4.74011 0.000205024 6.91211C0.000205463 11.9341 0.000205901 16.9381 0.000206342 21.9841C-0.0102527 26.3097 0.371308 30.6274 1.14021 34.8841C2.62821 42.8041 7.14021 48.5461 13.7402 52.8841C15.4046 53.9375 17.1548 54.8487 18.9722 55.6081C19.3356 55.8042 19.7368 55.9203 20.1487 55.9487C20.5607 55.9771 20.974 55.9172 21.3609 55.7728C21.7478 55.6285 22.0994 55.4032 22.3921 55.112C22.6848 54.8207 22.9119 54.4703 23.0582 54.0841C23.7662 52.6081 24.4682 51.1301 25.1642 49.6501C26.0042 47.8501 25.4342 46.2661 23.6222 45.4501C21.5271 44.5666 19.5883 43.351 17.8802 41.8501C15.6799 39.7671 14.1437 37.0808 13.4642 34.1281C13.014 32.3311 12.7625 30.49 12.7142 28.6381C12.7142 28.2181 12.8402 28.1701 13.1942 28.1701C15.9002 28.1701 18.5942 28.1221 21.3062 28.1701C21.743 28.2025 22.1816 28.1412 22.5927 27.9902C23.0038 27.8392 23.3779 27.6021 23.6899 27.2947C24.0018 26.9872 24.2444 26.6167 24.4014 26.2078C24.5584 25.799 24.6262 25.3613 24.6002 24.9241C24.5642 18.8941 24.6002 12.8701 24.6002 6.8401C24.6002 4.78211 23.4002 3.60011 21.3722 3.60011L12.3062 3.60011Z" fill="#8392A2"></path></g><defs><clipPath id="clip0_127_489"><rect width="60" height="60" fill="white"></rect></clipPath></defs></svg>