<svg xmlns="http://www.w3.org/2000/svg" width="47" height="20" viewBox="0 0 47 20" fill="none"><rect width="47" height="20" rx="4" fill="#FFDF9E"></rect><path d="M13.6037 7.67188C13.5639 7.29972 13.3963 7.00994 13.1009 6.80256C12.8082 6.59517 12.4276 6.49148 11.9588 6.49148C11.6293 6.49148 11.3466 6.54119 11.1108 6.64062C10.875 6.74006 10.6946 6.875 10.5696 7.04545C10.4446 7.21591 10.3807 7.41051 10.3778 7.62926C10.3778 7.81108 10.419 7.96875 10.5014 8.10227C10.5866 8.2358 10.7017 8.34943 10.8466 8.44318C10.9915 8.53409 11.152 8.6108 11.3281 8.6733C11.5043 8.7358 11.6818 8.78835 11.8608 8.83097L12.679 9.03551C13.0085 9.11222 13.3253 9.21591 13.6293 9.34659C13.9361 9.47727 14.2102 9.64205 14.4517 9.84091C14.696 10.0398 14.8892 10.2798 15.0312 10.5611C15.1733 10.8423 15.2443 11.1719 15.2443 11.5497C15.2443 12.0611 15.1136 12.5114 14.8523 12.9006C14.5909 13.2869 14.2131 13.5895 13.7188 13.8082C13.2273 14.0241 12.6321 14.1321 11.9332 14.1321C11.2543 14.1321 10.6648 14.027 10.1648 13.8168C9.66761 13.6065 9.27841 13.2997 8.99716 12.8963C8.71875 12.4929 8.56818 12.0014 8.54545 11.4219H10.1009C10.1236 11.7259 10.2173 11.9787 10.3821 12.1804C10.5469 12.3821 10.7614 12.5327 11.0256 12.6321C11.2926 12.7315 11.5909 12.7812 11.9205 12.7812C12.2642 12.7812 12.5653 12.7301 12.8239 12.6278C13.0852 12.5227 13.2898 12.3778 13.4375 12.1932C13.5852 12.0057 13.6605 11.7869 13.6634 11.5369C13.6605 11.3097 13.5938 11.1222 13.4631 10.9744C13.3324 10.8239 13.1491 10.6989 12.9134 10.5994C12.6804 10.4972 12.4077 10.4062 12.0952 10.3267L11.1023 10.071C10.3835 9.88636 9.81534 9.60653 9.39773 9.23153C8.98295 8.85369 8.77557 8.35227 8.77557 7.72727C8.77557 7.21307 8.91477 6.76278 9.19318 6.37642C9.47443 5.99006 9.85653 5.69034 10.3395 5.47727C10.8224 5.26136 11.3693 5.15341 11.9801 5.15341C12.5994 5.15341 13.142 5.26136 13.608 5.47727C14.0767 5.69034 14.4446 5.98722 14.7116 6.3679C14.9787 6.74574 15.1165 7.1804 15.125 7.67188H13.6037ZM17.6339 14H15.9464L19.0188 5.27273H20.9705L24.0472 14H22.3597L20.0288 7.0625H19.9606L17.6339 14ZM17.6893 10.5781H22.2915V11.848H17.6893V10.5781ZM25.1967 14V5.27273H26.7777V12.6747H30.6214V14H25.1967ZM31.9936 14V5.27273H37.6697V6.59801H33.5746V8.96733H37.3757V10.2926H33.5746V12.6747H37.7038V14H31.9936Z" fill="#FF971A"></path></svg>